<mxfile host="app.diagrams.net" modified="2024-02-28T13:35:10.057Z" agent="Mozilla/5.0 (Windows NT 10.0; Win64; x64) AppleWebKit/537.36 (KHTML, like Gecko) Chrome/121.0.0.0 Safari/537.36" etag="jOEhe2t49uJbP9vwK_kA" version="23.1.5" type="device">
  <diagram name="Page-1" id="wDsUAt-3eCRUhv08e1yK">
    <mxGraphModel dx="2739" dy="984" grid="1" gridSize="10" guides="1" tooltips="1" connect="1" arrows="1" fold="1" page="1" pageScale="1" pageWidth="827" pageHeight="1169" math="0" shadow="0">
      <root>
        <mxCell id="0" />
        <mxCell id="1" parent="0" />
        <mxCell id="fhvjaHQJT-w74q8AiSvq-8" style="edgeStyle=orthogonalEdgeStyle;rounded=0;orthogonalLoop=1;jettySize=auto;html=1;exitX=0;exitY=0.5;exitDx=0;exitDy=0;entryX=0.5;entryY=1;entryDx=0;entryDy=0;" edge="1" parent="1" source="fhvjaHQJT-w74q8AiSvq-1" target="fhvjaHQJT-w74q8AiSvq-2">
          <mxGeometry relative="1" as="geometry" />
        </mxCell>
        <mxCell id="fhvjaHQJT-w74q8AiSvq-13" style="edgeStyle=orthogonalEdgeStyle;rounded=0;orthogonalLoop=1;jettySize=auto;html=1;exitX=1;exitY=0.5;exitDx=0;exitDy=0;entryX=0.25;entryY=1;entryDx=0;entryDy=0;" edge="1" parent="1" source="fhvjaHQJT-w74q8AiSvq-1" target="fhvjaHQJT-w74q8AiSvq-5">
          <mxGeometry relative="1" as="geometry" />
        </mxCell>
        <mxCell id="fhvjaHQJT-w74q8AiSvq-21" style="edgeStyle=orthogonalEdgeStyle;rounded=0;orthogonalLoop=1;jettySize=auto;html=1;exitX=0.25;exitY=0;exitDx=0;exitDy=0;entryX=0.75;entryY=1;entryDx=0;entryDy=0;" edge="1" parent="1" source="fhvjaHQJT-w74q8AiSvq-1" target="fhvjaHQJT-w74q8AiSvq-3">
          <mxGeometry relative="1" as="geometry" />
        </mxCell>
        <mxCell id="fhvjaHQJT-w74q8AiSvq-1" value="index.html" style="rounded=0;whiteSpace=wrap;html=1;" vertex="1" parent="1">
          <mxGeometry x="400" y="550" width="120" height="60" as="geometry" />
        </mxCell>
        <mxCell id="fhvjaHQJT-w74q8AiSvq-11" style="edgeStyle=orthogonalEdgeStyle;rounded=0;orthogonalLoop=1;jettySize=auto;html=1;exitX=0.5;exitY=0;exitDx=0;exitDy=0;entryX=0.5;entryY=1;entryDx=0;entryDy=0;" edge="1" parent="1" source="fhvjaHQJT-w74q8AiSvq-2" target="fhvjaHQJT-w74q8AiSvq-10">
          <mxGeometry relative="1" as="geometry" />
        </mxCell>
        <mxCell id="fhvjaHQJT-w74q8AiSvq-19" style="edgeStyle=orthogonalEdgeStyle;rounded=0;orthogonalLoop=1;jettySize=auto;html=1;exitX=1;exitY=0.5;exitDx=0;exitDy=0;entryX=0.25;entryY=1;entryDx=0;entryDy=0;" edge="1" parent="1" source="fhvjaHQJT-w74q8AiSvq-2" target="fhvjaHQJT-w74q8AiSvq-3">
          <mxGeometry relative="1" as="geometry" />
        </mxCell>
        <mxCell id="fhvjaHQJT-w74q8AiSvq-2" value="Fouiller" style="rounded=0;whiteSpace=wrap;html=1;" vertex="1" parent="1">
          <mxGeometry x="180" y="420" width="120" height="60" as="geometry" />
        </mxCell>
        <mxCell id="fhvjaHQJT-w74q8AiSvq-12" style="edgeStyle=orthogonalEdgeStyle;rounded=0;orthogonalLoop=1;jettySize=auto;html=1;exitX=0;exitY=0.5;exitDx=0;exitDy=0;entryX=1;entryY=0.5;entryDx=0;entryDy=0;" edge="1" parent="1" source="fhvjaHQJT-w74q8AiSvq-3" target="fhvjaHQJT-w74q8AiSvq-10">
          <mxGeometry relative="1" as="geometry" />
        </mxCell>
        <mxCell id="fhvjaHQJT-w74q8AiSvq-26" style="edgeStyle=orthogonalEdgeStyle;rounded=0;orthogonalLoop=1;jettySize=auto;html=1;exitX=1;exitY=1;exitDx=0;exitDy=0;entryX=0.25;entryY=1;entryDx=0;entryDy=0;" edge="1" parent="1" source="fhvjaHQJT-w74q8AiSvq-3" target="fhvjaHQJT-w74q8AiSvq-22">
          <mxGeometry relative="1" as="geometry" />
        </mxCell>
        <mxCell id="fhvjaHQJT-w74q8AiSvq-27" style="edgeStyle=orthogonalEdgeStyle;rounded=0;orthogonalLoop=1;jettySize=auto;html=1;exitX=0.75;exitY=0;exitDx=0;exitDy=0;entryX=0.25;entryY=1;entryDx=0;entryDy=0;" edge="1" parent="1" source="fhvjaHQJT-w74q8AiSvq-3" target="fhvjaHQJT-w74q8AiSvq-14">
          <mxGeometry relative="1" as="geometry" />
        </mxCell>
        <mxCell id="fhvjaHQJT-w74q8AiSvq-3" value="Attendre" style="rounded=0;whiteSpace=wrap;html=1;" vertex="1" parent="1">
          <mxGeometry x="330" y="370" width="120" height="60" as="geometry" />
        </mxCell>
        <mxCell id="fhvjaHQJT-w74q8AiSvq-20" style="edgeStyle=orthogonalEdgeStyle;rounded=0;orthogonalLoop=1;jettySize=auto;html=1;exitX=0;exitY=0.5;exitDx=0;exitDy=0;entryX=1;entryY=0;entryDx=0;entryDy=0;" edge="1" parent="1" source="fhvjaHQJT-w74q8AiSvq-5" target="fhvjaHQJT-w74q8AiSvq-10">
          <mxGeometry relative="1" as="geometry" />
        </mxCell>
        <mxCell id="fhvjaHQJT-w74q8AiSvq-5" value="Courir" style="rounded=0;whiteSpace=wrap;html=1;" vertex="1" parent="1">
          <mxGeometry x="590" y="220" width="120" height="60" as="geometry" />
        </mxCell>
        <mxCell id="fhvjaHQJT-w74q8AiSvq-6" value="MORT 1" style="rounded=0;whiteSpace=wrap;html=1;" vertex="1" parent="1">
          <mxGeometry x="820" y="210" width="120" height="60" as="geometry" />
        </mxCell>
        <mxCell id="fhvjaHQJT-w74q8AiSvq-33" style="edgeStyle=orthogonalEdgeStyle;rounded=0;orthogonalLoop=1;jettySize=auto;html=1;exitX=0;exitY=0;exitDx=0;exitDy=0;entryX=1;entryY=0.5;entryDx=0;entryDy=0;" edge="1" parent="1" source="fhvjaHQJT-w74q8AiSvq-10" target="fhvjaHQJT-w74q8AiSvq-28">
          <mxGeometry relative="1" as="geometry" />
        </mxCell>
        <mxCell id="fhvjaHQJT-w74q8AiSvq-34" style="edgeStyle=orthogonalEdgeStyle;rounded=0;orthogonalLoop=1;jettySize=auto;html=1;exitX=0.5;exitY=0;exitDx=0;exitDy=0;entryX=0.5;entryY=1;entryDx=0;entryDy=0;" edge="1" parent="1" source="fhvjaHQJT-w74q8AiSvq-10" target="fhvjaHQJT-w74q8AiSvq-29">
          <mxGeometry relative="1" as="geometry" />
        </mxCell>
        <mxCell id="fhvjaHQJT-w74q8AiSvq-10" value="Explorer" style="rounded=0;whiteSpace=wrap;html=1;" vertex="1" parent="1">
          <mxGeometry x="200" y="250" width="120" height="60" as="geometry" />
        </mxCell>
        <mxCell id="fhvjaHQJT-w74q8AiSvq-14" value="soon..." style="rounded=0;whiteSpace=wrap;html=1;" vertex="1" parent="1">
          <mxGeometry x="390" y="270" width="120" height="60" as="geometry" />
        </mxCell>
        <mxCell id="fhvjaHQJT-w74q8AiSvq-17" style="edgeStyle=orthogonalEdgeStyle;rounded=0;orthogonalLoop=1;jettySize=auto;html=1;exitX=1;exitY=1;exitDx=0;exitDy=0;entryX=0.417;entryY=-0.039;entryDx=0;entryDy=0;entryPerimeter=0;" edge="1" parent="1" source="fhvjaHQJT-w74q8AiSvq-5" target="fhvjaHQJT-w74q8AiSvq-6">
          <mxGeometry relative="1" as="geometry" />
        </mxCell>
        <mxCell id="fhvjaHQJT-w74q8AiSvq-22" value="(fun)" style="rounded=0;whiteSpace=wrap;html=1;fillColor=#fff2cc;strokeColor=#d6b656;gradientColor=#ffd966;" vertex="1" parent="1">
          <mxGeometry x="480" y="360" width="120" height="60" as="geometry" />
        </mxCell>
        <mxCell id="fhvjaHQJT-w74q8AiSvq-28" value="(ikea)" style="rounded=0;whiteSpace=wrap;html=1;fillColor=#dae8fc;gradientColor=#7ea6e0;strokeColor=#6c8ebf;" vertex="1" parent="1">
          <mxGeometry x="30" y="190" width="120" height="60" as="geometry" />
        </mxCell>
        <mxCell id="fhvjaHQJT-w74q8AiSvq-29" value="(home)" style="rounded=0;whiteSpace=wrap;html=1;fillColor=#f5f5f5;gradientColor=#b3b3b3;strokeColor=#666666;" vertex="1" parent="1">
          <mxGeometry x="180" y="80" width="120" height="60" as="geometry" />
        </mxCell>
        <mxCell id="fhvjaHQJT-w74q8AiSvq-30" value="&lt;p style=&quot;line-height: 130%;&quot;&gt;&lt;font style=&quot;font-size: 40px;&quot;&gt;Niveau 0&lt;/font&gt;&lt;/p&gt;" style="text;html=1;align=center;verticalAlign=middle;whiteSpace=wrap;rounded=0;strokeWidth=9;fillColor=#ffe6cc;strokeColor=#d79b00;" vertex="1" parent="1">
          <mxGeometry x="430" y="40" width="180" height="120" as="geometry" />
        </mxCell>
        <mxCell id="fhvjaHQJT-w74q8AiSvq-32" value="" style="rounded=1;whiteSpace=wrap;html=1;arcSize=39;fillColor=none;strokeColor=#d79b00;" vertex="1" parent="1">
          <mxGeometry x="-20" width="1020" height="620" as="geometry" />
        </mxCell>
        <mxCell id="fhvjaHQJT-w74q8AiSvq-55" style="edgeStyle=orthogonalEdgeStyle;rounded=0;orthogonalLoop=1;jettySize=auto;html=1;exitX=0.75;exitY=0;exitDx=0;exitDy=0;entryX=0.25;entryY=1;entryDx=0;entryDy=0;" edge="1" parent="1" source="fhvjaHQJT-w74q8AiSvq-35" target="fhvjaHQJT-w74q8AiSvq-37">
          <mxGeometry relative="1" as="geometry" />
        </mxCell>
        <mxCell id="fhvjaHQJT-w74q8AiSvq-35" value="home" style="rounded=0;whiteSpace=wrap;html=1;" vertex="1" parent="1">
          <mxGeometry x="1200" y="900" width="120" height="60" as="geometry" />
        </mxCell>
        <mxCell id="fhvjaHQJT-w74q8AiSvq-50" style="edgeStyle=orthogonalEdgeStyle;rounded=0;orthogonalLoop=1;jettySize=auto;html=1;exitX=1;exitY=0.25;exitDx=0;exitDy=0;entryX=0.25;entryY=1;entryDx=0;entryDy=0;" edge="1" parent="1" source="fhvjaHQJT-w74q8AiSvq-37" target="fhvjaHQJT-w74q8AiSvq-38">
          <mxGeometry relative="1" as="geometry" />
        </mxCell>
        <mxCell id="fhvjaHQJT-w74q8AiSvq-52" style="edgeStyle=orthogonalEdgeStyle;rounded=0;orthogonalLoop=1;jettySize=auto;html=1;exitX=1;exitY=0.75;exitDx=0;exitDy=0;entryX=0.25;entryY=0;entryDx=0;entryDy=0;" edge="1" parent="1" source="fhvjaHQJT-w74q8AiSvq-37" target="fhvjaHQJT-w74q8AiSvq-39">
          <mxGeometry relative="1" as="geometry" />
        </mxCell>
        <mxCell id="fhvjaHQJT-w74q8AiSvq-37" value="escalader" style="rounded=0;whiteSpace=wrap;html=1;" vertex="1" parent="1">
          <mxGeometry x="1280" y="770" width="120" height="60" as="geometry" />
        </mxCell>
        <mxCell id="fhvjaHQJT-w74q8AiSvq-49" style="edgeStyle=orthogonalEdgeStyle;rounded=0;orthogonalLoop=1;jettySize=auto;html=1;exitX=1;exitY=0.5;exitDx=0;exitDy=0;entryX=0;entryY=0.5;entryDx=0;entryDy=0;" edge="1" parent="1" source="fhvjaHQJT-w74q8AiSvq-38" target="fhvjaHQJT-w74q8AiSvq-43">
          <mxGeometry relative="1" as="geometry" />
        </mxCell>
        <mxCell id="fhvjaHQJT-w74q8AiSvq-38" value="clés" style="rounded=0;whiteSpace=wrap;html=1;" vertex="1" parent="1">
          <mxGeometry x="1450" y="640" width="120" height="60" as="geometry" />
        </mxCell>
        <mxCell id="fhvjaHQJT-w74q8AiSvq-46" style="edgeStyle=orthogonalEdgeStyle;rounded=0;orthogonalLoop=1;jettySize=auto;html=1;exitX=1;exitY=0.5;exitDx=0;exitDy=0;entryX=0.25;entryY=1;entryDx=0;entryDy=0;" edge="1" parent="1" source="fhvjaHQJT-w74q8AiSvq-39" target="fhvjaHQJT-w74q8AiSvq-44">
          <mxGeometry relative="1" as="geometry" />
        </mxCell>
        <mxCell id="fhvjaHQJT-w74q8AiSvq-39" value="télécommande" style="rounded=0;whiteSpace=wrap;html=1;" vertex="1" parent="1">
          <mxGeometry x="1460" y="860" width="120" height="60" as="geometry" />
        </mxCell>
        <mxCell id="fhvjaHQJT-w74q8AiSvq-47" style="edgeStyle=orthogonalEdgeStyle;rounded=0;orthogonalLoop=1;jettySize=auto;html=1;exitX=1;exitY=0.5;exitDx=0;exitDy=0;entryX=0;entryY=0.5;entryDx=0;entryDy=0;" edge="1" parent="1" source="fhvjaHQJT-w74q8AiSvq-42" target="fhvjaHQJT-w74q8AiSvq-44">
          <mxGeometry relative="1" as="geometry" />
        </mxCell>
        <mxCell id="fhvjaHQJT-w74q8AiSvq-48" style="edgeStyle=orthogonalEdgeStyle;rounded=0;orthogonalLoop=1;jettySize=auto;html=1;exitX=1;exitY=0.25;exitDx=0;exitDy=0;entryX=0;entryY=0.75;entryDx=0;entryDy=0;" edge="1" parent="1" source="fhvjaHQJT-w74q8AiSvq-42" target="fhvjaHQJT-w74q8AiSvq-43">
          <mxGeometry relative="1" as="geometry" />
        </mxCell>
        <mxCell id="fhvjaHQJT-w74q8AiSvq-42" value="les deux" style="rounded=0;whiteSpace=wrap;html=1;" vertex="1" parent="1">
          <mxGeometry x="1510" y="760" width="100" height="60" as="geometry" />
        </mxCell>
        <mxCell id="fhvjaHQJT-w74q8AiSvq-43" value="porte" style="rounded=0;whiteSpace=wrap;html=1;" vertex="1" parent="1">
          <mxGeometry x="1800" y="670" width="120" height="60" as="geometry" />
        </mxCell>
        <mxCell id="fhvjaHQJT-w74q8AiSvq-54" style="edgeStyle=orthogonalEdgeStyle;rounded=0;orthogonalLoop=1;jettySize=auto;html=1;exitX=0.75;exitY=1;exitDx=0;exitDy=0;entryX=0.5;entryY=0;entryDx=0;entryDy=0;" edge="1" parent="1" source="fhvjaHQJT-w74q8AiSvq-44" target="fhvjaHQJT-w74q8AiSvq-53">
          <mxGeometry relative="1" as="geometry" />
        </mxCell>
        <mxCell id="fhvjaHQJT-w74q8AiSvq-44" value="garage" style="rounded=0;whiteSpace=wrap;html=1;" vertex="1" parent="1">
          <mxGeometry x="1800" y="790" width="120" height="60" as="geometry" />
        </mxCell>
        <mxCell id="fhvjaHQJT-w74q8AiSvq-51" style="edgeStyle=orthogonalEdgeStyle;rounded=0;orthogonalLoop=1;jettySize=auto;html=1;exitX=1;exitY=0.5;exitDx=0;exitDy=0;entryX=-0.018;entryY=0.646;entryDx=0;entryDy=0;entryPerimeter=0;" edge="1" parent="1" source="fhvjaHQJT-w74q8AiSvq-37" target="fhvjaHQJT-w74q8AiSvq-42">
          <mxGeometry relative="1" as="geometry" />
        </mxCell>
        <mxCell id="fhvjaHQJT-w74q8AiSvq-53" value="MORT" style="rounded=0;whiteSpace=wrap;html=1;" vertex="1" parent="1">
          <mxGeometry x="1860" y="940" width="120" height="60" as="geometry" />
        </mxCell>
        <mxCell id="fhvjaHQJT-w74q8AiSvq-56" value="salon" style="rounded=0;whiteSpace=wrap;html=1;" vertex="1" parent="1">
          <mxGeometry x="1690" y="480" width="120" height="60" as="geometry" />
        </mxCell>
        <mxCell id="fhvjaHQJT-w74q8AiSvq-57" value="cuisine" style="rounded=0;whiteSpace=wrap;html=1;" vertex="1" parent="1">
          <mxGeometry x="1860" y="470" width="120" height="60" as="geometry" />
        </mxCell>
        <mxCell id="fhvjaHQJT-w74q8AiSvq-58" value="couloir" style="rounded=0;whiteSpace=wrap;html=1;" vertex="1" parent="1">
          <mxGeometry x="2000" y="550" width="120" height="60" as="geometry" />
        </mxCell>
        <mxCell id="fhvjaHQJT-w74q8AiSvq-59" value="garage" style="rounded=0;whiteSpace=wrap;html=1;" vertex="1" parent="1">
          <mxGeometry x="2030" y="650" width="120" height="60" as="geometry" />
        </mxCell>
        <mxCell id="fhvjaHQJT-w74q8AiSvq-61" value="" style="endArrow=classic;startArrow=classic;html=1;rounded=0;exitX=0.438;exitY=-0.029;exitDx=0;exitDy=0;exitPerimeter=0;entryX=0.5;entryY=1;entryDx=0;entryDy=0;" edge="1" parent="1" source="fhvjaHQJT-w74q8AiSvq-43" target="fhvjaHQJT-w74q8AiSvq-56">
          <mxGeometry width="50" height="50" relative="1" as="geometry">
            <mxPoint x="1800" y="630" as="sourcePoint" />
            <mxPoint x="1850" y="580" as="targetPoint" />
          </mxGeometry>
        </mxCell>
        <mxCell id="fhvjaHQJT-w74q8AiSvq-62" value="" style="endArrow=classic;startArrow=classic;html=1;rounded=0;entryX=0.5;entryY=1;entryDx=0;entryDy=0;" edge="1" parent="1" target="fhvjaHQJT-w74q8AiSvq-57">
          <mxGeometry width="50" height="50" relative="1" as="geometry">
            <mxPoint x="1870" y="660" as="sourcePoint" />
            <mxPoint x="1760" y="550" as="targetPoint" />
          </mxGeometry>
        </mxCell>
        <mxCell id="fhvjaHQJT-w74q8AiSvq-63" value="" style="endArrow=classic;startArrow=classic;html=1;rounded=0;exitX=0.865;exitY=-0.05;exitDx=0;exitDy=0;exitPerimeter=0;entryX=0;entryY=0.5;entryDx=0;entryDy=0;" edge="1" parent="1" source="fhvjaHQJT-w74q8AiSvq-43" target="fhvjaHQJT-w74q8AiSvq-58">
          <mxGeometry width="50" height="50" relative="1" as="geometry">
            <mxPoint x="1853" y="668" as="sourcePoint" />
            <mxPoint x="1750" y="540" as="targetPoint" />
          </mxGeometry>
        </mxCell>
        <mxCell id="fhvjaHQJT-w74q8AiSvq-64" value="" style="endArrow=classic;startArrow=classic;html=1;rounded=0;exitX=1;exitY=0.25;exitDx=0;exitDy=0;entryX=0;entryY=0.5;entryDx=0;entryDy=0;" edge="1" parent="1" source="fhvjaHQJT-w74q8AiSvq-43" target="fhvjaHQJT-w74q8AiSvq-59">
          <mxGeometry width="50" height="50" relative="1" as="geometry">
            <mxPoint x="1863" y="678" as="sourcePoint" />
            <mxPoint x="1760" y="550" as="targetPoint" />
          </mxGeometry>
        </mxCell>
      </root>
    </mxGraphModel>
  </diagram>
</mxfile>
